<mxfile host="app.diagrams.net" modified="2023-09-13T17:28:28.471Z" agent="Mozilla/5.0 (Macintosh; Intel Mac OS X 10_15_7) AppleWebKit/537.36 (KHTML, like Gecko) Chrome/116.0.0.0 Safari/537.36" version="21.7.4" etag="AlTRs7qP-XgRYQhwi_kN" type="github">
  <diagram name="Page-1" id="VRn-8J7gXfFht9guxTpI">
    <mxGraphModel>
      <root>
        <mxCell id="0" />
        <mxCell id="1" parent="0" />
      </root>
    </mxGraphModel>
  </diagram>
</mxfile>
